<svg id="SvgjsSvg1081" width="288" height="288" xmlns="http://www.w3.org/2000/svg" version="1.1" xmlns:xlink="http://www.w3.org/1999/xlink" xmlns:svgjs="http://svgjs.com/svgjs"><defs id="SvgjsDefs1082"></defs><g id="SvgjsG1083"><svg xmlns="http://www.w3.org/2000/svg" data-name="Layer 1" viewBox="0 0 1000 1000" width="288" height="288"><g data-name="&amp;lt;Group&amp;gt;" fill="#5d5d5a" class="color000 svgShape"><path fill="#334496" d="M578.26 604H425.62a29.13 29.13 0 0 1-29.1-29.1V407.6a29.13 29.13 0 0 1 29.1-29.1h152.64a29.13 29.13 0 0 1 29.1 29.1v167.28a29.13 29.13 0 0 1-29.1 29.12ZM425.62 388.8a18.82 18.82 0 0 0-18.8 18.8v167.28a18.82 18.82 0 0 0 18.8 18.8h152.64a18.82 18.82 0 0 0 18.8-18.8V407.6a18.82 18.82 0 0 0-18.8-18.8Z" data-name="&amp;lt;Group&amp;gt;" class="color070707 svgShape"></path><path fill="#334496" d="M561.58 571.73H442.3A15.74 15.74 0 0 1 426.57 556V426.47a15.75 15.75 0 0 1 15.73-15.73h119.28a15.74 15.74 0 0 1 15.73 15.73V556a15.74 15.74 0 0 1-15.73 15.73ZM442.3 421a5.44 5.44 0 0 0-5.43 5.43V556a5.44 5.44 0 0 0 5.43 5.43h119.28A5.43 5.43 0 0 0 567 556V426.47a5.44 5.44 0 0 0-5.43-5.43Z" data-name="&amp;lt;Group&amp;gt;" class="color070707 svgShape"></path><g fill="#334496" data-name="&amp;lt;Group&amp;gt;" class="color070707 svgShape"><path d="M505.15 241.12H505a5.15 5.15 0 0 1-5-5.28c.07-2.77.37-6.21.72-10.12 2.47-27.71 6.6-74.09-51.53-83.54-76.94-12.48-103.92 81.94-105 86a5.15 5.15 0 0 1-9.93-2.73c.29-1.08 30.48-107.44 116.62-93.41 67.58 11 62.55 67.47 60.13 94.62-.33 3.66-.62 6.88-.68 9.47a5.15 5.15 0 0 1-5.18 4.99Z" data-name="&amp;lt;Group&amp;gt;" fill="#5d5d5a" class="color000 svgShape"></path><path d="M218.48 324.77a5.15 5.15 0 0 1-5.15-5.14c-.06-36.83 15.75-67.33 44.51-85.89 26.1-16.85 61.22-21.74 83.48-11.63l53.85 18.43a5.16 5.16 0 0 1 2 1.29l44 45.55a5.15 5.15 0 0 1-7.41 7.15l-43.14-44.65-53.14-18.21c-17-7.7-47.62-6.36-74.1 10.73-18.19 11.74-39.87 34.67-39.8 77.22a5.15 5.15 0 0 1-5.14 5.16Z" data-name="&amp;lt;Group&amp;gt;" fill="#5d5d5a" class="color000 svgShape"></path><path d="M168.64 535.08a5.13 5.13 0 0 1-3.33-1.22c-60.33-51.19-35.14-123.31-34.87-124 22.38-80 72.49-93.18 87.31-95.3a5.16 5.16 0 0 1 2.09.13l86.86 23.69 62.9-6.18a5.15 5.15 0 1 1 1 10.25l-63.84 6.27a5.39 5.39 0 0 1-1.86-.16l-86.72-23.65c-14.42 2.37-57.64 15.57-77.95 88.09-1.08 3-23 66.56 31.74 113a5.15 5.15 0 0 1-3.34 9.07Z" data-name="&amp;lt;Group&amp;gt;" fill="#5d5d5a" class="color000 svgShape"></path><path d="M229.09 686.4c-25.71 0-46.69-18-57.94-30.1-7.5-8.09-13.23-18.29-17.53-31.18-8.33-25-6.62-79.14 11.22-98.67a5.15 5.15 0 1 1 7.6 6.95c-13.64 14.92-17 64.69-9.05 88.46 3.83 11.47 8.83 20.45 15.31 27.44 11.9 12.85 36 33.15 63.61 24.82a5.15 5.15 0 1 1 3 9.86 55.92 55.92 0 0 1-16.22 2.42Z" data-name="&amp;lt;Group&amp;gt;" fill="#5d5d5a" class="color000 svgShape"></path><path d="M291.4 793.61c-21.33 0-37.63-6.27-48.69-18.79-24-27.13-14.74-75.46-6.51-94.62a11.87 11.87 0 0 1 7.94-6.82l64.62-54.1a5.15 5.15 0 0 1 6.61 7.9l-65.65 55a5.13 5.13 0 0 1-2.8 1.17 1.54 1.54 0 0 0-1.26.95c-7.09 16.51-15.74 60.52 4.77 83.74 15.26 17.27 43.9 20 85.1 8a5.15 5.15 0 1 1 2.86 9.89q-26.52 7.69-46.99 7.68Z" data-name="&amp;lt;Group&amp;gt;" fill="#5d5d5a" class="color000 svgShape"></path><path d="M439.76 855.29q-5.3 0-10.75-.41c-66-5-95.52-69.06-96.75-71.79a5.15 5.15 0 0 1-.32-3.29l17.71-75.14a5.11 5.11 0 0 1 1-2.1L394 650.27a5.15 5.15 0 1 1 7.93 6.56L359.4 708.2l-17 72.18c4.79 9.46 32.93 60.15 87.39 64.23 32.24 2.43 59.79-6.85 81.79-27.55a5.15 5.15 0 0 1 7.06 7.5c-21.71 20.44-48.2 30.73-78.88 30.73Z" data-name="&amp;lt;Group&amp;gt;" fill="#5d5d5a" class="color000 svgShape"></path></g><g fill="#334496" data-name="&amp;lt;Group&amp;gt;" class="color070707 svgShape"><path d="M661.73 236a5.16 5.16 0 0 1-5-3.8c-1.09-4-27.7-98.59-104.66-86.51-19.18 3-34.75 11.26-46.28 24.5a5.15 5.15 0 0 1-7.76-6.77c13.17-15.11 30.81-24.5 52.44-27.91 86.19-13.6 115.92 92.91 116.21 94a5.15 5.15 0 0 1-3.63 6.31 5.05 5.05 0 0 1-1.32.18Z" data-name="&amp;lt;Group&amp;gt;" fill="#5d5d5a" class="color000 svgShape"></path><path d="M782 329.47a5.15 5.15 0 0 1-5.12-5.18c.25-42.56-21.33-65.6-39.48-77.44-26.4-17.21-57-18.69-73.57-11.27l-64.51 39.62a5.15 5.15 0 0 1-5.38-8.78L659 226.5c22.89-10.31 58-5.25 84 11.73 28.69 18.71 44.38 49.29 44.15 86.13a5.15 5.15 0 0 1-5.15 5.11Z" data-name="&amp;lt;Group&amp;gt;" fill="#5d5d5a" class="color000 svgShape"></path><path d="M831 540a5.15 5.15 0 0 1-3.32-9.09c55-46.2 33.29-109.83 32.34-112.52-19.95-72.39-62.58-86.18-77.33-88.78l-67.76 28.29a5.24 5.24 0 0 1-2.77.34l-66.47-10.34a5.15 5.15 0 1 1 1.58-10.18l65 10.11 67.76-28.27a5.24 5.24 0 0 1 2.74-.34c14.81 2.21 64.86 15.66 87 96.11.14.36 25 72.61-35.53 123.49A5.12 5.12 0 0 1 831 540Z" data-name="&amp;lt;Group&amp;gt;" fill="#5d5d5a" class="color000 svgShape"></path><path d="M770.13 691a55.71 55.71 0 0 1-16.46-2.5 5.15 5.15 0 1 1 3-9.84c27.58 8.44 51.75-11.71 63.71-24.49 6.51-7 11.56-15.91 15.43-27.36 8-23.73 4.9-73.52-8.67-88.51a5.15 5.15 0 1 1 7.64-6.91C852.56 551 854 605.2 845.59 630.15c-4.36 12.87-10.13 23-17.66 31.09-11.27 12.04-32.23 29.76-57.8 29.76Z" data-name="&amp;lt;Group&amp;gt;" fill="#5d5d5a" class="color000 svgShape"></path><path d="M706.16 796.73q-19.9 0-45.61-10.33a5.15 5.15 0 1 1 3.84-9.55c34 13.67 59 12.66 74.41-3 22.19-22.61 18.54-70.48 12-87.3l-52.25-52.07-38.32-10.78a5.15 5.15 0 1 1 2.79-9.92l39.61 11.14a5.17 5.17 0 0 1 2.24 1.31L758.81 680a5.11 5.11 0 0 1 1.11 1.64c8.83 20.81 11.88 73.3-13.76 99.43-10.27 10.43-23.65 15.66-40 15.66zM503.64 388.8h-.05a5.15 5.15 0 0 1-5.1-5.2L500 235.92a5.15 5.15 0 0 1 5.15-5.1h.05a5.15 5.15 0 0 1 5.1 5.2l-1.5 147.68a5.15 5.15 0 0 1-5.16 5.1z" data-name="&amp;lt;Group&amp;gt;" fill="#5d5d5a" class="color000 svgShape"></path><path d="M578.22 869.26c-38.35 0-64-23.76-76.22-70.73a233.16 233.16 0 0 1-7.11-61.09l1.41-138.66a5.15 5.15 0 0 1 5.15-5.1h.05a5.15 5.15 0 0 1 5.1 5.2l-1.41 138.66a222.88 222.88 0 0 0 6.81 58.39c11.69 44.85 35.29 65.36 72.41 62.81 54.28-3.8 70.38-66 72.72-76.52l-15.31-34a5.24 5.24 0 0 1-.45-2.22l1.19-57.19a5.15 5.15 0 0 1 10.3.21l-1.17 56 15.52 34.47a5.17 5.17 0 0 1 .37 3c-.15.82-15.53 81.78-82.45 86.47-2.37.22-4.67.3-6.91.3Z" data-name="&amp;lt;Group&amp;gt;" fill="#5d5d5a" class="color000 svgShape"></path></g><path fill="#334496" d="M455.4 528.21a5.15 5.15 0 0 1-4.87-6.81L472 458.3a5.15 5.15 0 0 1 9.75 3.32l-21.48 63.09a5.15 5.15 0 0 1-4.87 3.5Z" data-name="&amp;lt;Group&amp;gt;" class="color070707 svgShape"></path><path fill="#334496" d="M497.33 528.21a5.15 5.15 0 0 1-4.9-3.56L472 461.55a5.15 5.15 0 1 1 9.8-3.18l20.45 63.09a5.15 5.15 0 0 1-4.9 6.74zm34.6 0a5.15 5.15 0 0 1-5.15-5.15V460a5.15 5.15 0 0 1 10.3 0v63.09a5.15 5.15 0 0 1-5.15 5.12z" data-name="&amp;lt;Group&amp;gt;" class="color070707 svgShape"></path><path fill="#334496" d="M548.3 465.11h-32.73a5.15 5.15 0 0 1 0-10.3h32.73a5.15 5.15 0 0 1 0 10.3zm0 63.1h-32.73a5.15 5.15 0 0 1 0-10.3h32.73a5.15 5.15 0 1 1 0 10.3zM489.73 507h-26.79a5.15 5.15 0 1 1 0-10.3h26.79a5.15 5.15 0 0 1 0 10.3zM675.28 428.2h-71.53a5.15 5.15 0 1 1 0-10.3h70.47L748 385.81a5.15 5.15 0 1 1 4.11 9.44l-74.75 32.52a5.16 5.16 0 0 1-2.08.43zm39.2 41.28H603.75a5.15 5.15 0 1 1 0-10.3h110.73a5.15 5.15 0 1 1 0 10.3zM769.72 611a5.14 5.14 0 0 1-3.08-1l-66.48-49.76h-96.41a5.15 5.15 0 1 1 0-10.3h98.13a5.13 5.13 0 0 1 3.08 1l67.86 50.78a5.15 5.15 0 0 1-3.09 9.27zm-48.41-95H603.75a5.15 5.15 0 1 1 0-10.3h116.63l78.1-29a5.15 5.15 0 0 1 3.59 9.65l-79 29.32a5.2 5.2 0 0 1-1.76.33zM400.65 430.34h-.12l-69.89-1.53a5.19 5.19 0 0 1-1.92-.42l-72.23-31.08a5.15 5.15 0 1 1 4.07-9.46l71.3 30.69 68.89 1.5a5.15 5.15 0 0 1-.11 10.3zm0 41.31h-.23l-104-4.6a5.15 5.15 0 0 1 .46-10.29l104 4.59a5.15 5.15 0 0 1-.22 10.3zM243.8 593a5.15 5.15 0 0 1-2.54-9.63l57.91-32.72a4.91 4.91 0 0 1 2.65-.67l98.11 2.14a5.15 5.15 0 0 1-.22 10.3L303 560.29l-56.68 32a5.13 5.13 0 0 1-2.52.71zm156.85-74.87h-.12L283 515.56a5.14 5.14 0 0 1-1.78-.36l-62.54-24.75a5.15 5.15 0 0 1 3.79-9.57l61.68 24.41 116.62 2.54a5.15 5.15 0 0 1-.11 10.3zM572.16 864.15a5.15 5.15 0 0 1-4.89-6.77L590.63 787l-23.4-78.12a5.15 5.15 0 0 1 9.86-3l23.91 79.7a5.15 5.15 0 0 1 0 3.1l-24 71.95a5.15 5.15 0 0 1-4.84 3.52zm-149.05-9.24h-.38a5.15 5.15 0 0 1-4.76-5.51l8.61-118.76a5.15 5.15 0 1 1 10.27.74l-8.61 118.76a5.15 5.15 0 0 1-5.13 4.77z" data-name="&amp;lt;Group&amp;gt;" class="color070707 svgShape"></path><path fill="#334496" d="M433.42 733.25c-11 0-19.95-9.5-19.95-21.17s9-21.17 19.95-21.17 20 9.5 20 21.17-9 21.17-20 21.17zm0-32c-5.32 0-9.65 4.88-9.65 10.87s4.33 10.87 9.65 10.87 9.65-4.88 9.65-10.87-4.33-10.91-9.65-10.91zm133.03 11.27c-11 0-20-9.5-20-21.17s9-21.17 20-21.17 20 9.5 20 21.17-9 21.17-20 21.17zm0-32c-5.32 0-9.65 4.88-9.65 10.87s4.33 10.87 9.65 10.87 9.65-4.88 9.65-10.87-4.33-10.91-9.65-10.91zm81.22 11.95c-11 0-20-9.5-20-21.17s9-21.17 20-21.17 20 9.5 20 21.17-9 21.17-20 21.17zm0-32c-5.32 0-9.65 4.88-9.65 10.88s4.33 10.87 9.65 10.87 9.65-4.88 9.65-10.87-4.32-10.93-9.65-10.93zm0-25.75c-11 0-20-9.5-20-21.17s9-21.17 20-21.17 20 9.5 20 21.17-9 21.17-20 21.17zm0-32c-5.32 0-9.65 4.88-9.65 10.87s4.33 10.87 9.65 10.87 9.65-4.88 9.65-10.87-4.32-10.91-9.65-10.91zm135.04 32c-11 0-19.95-9.5-19.95-21.17s9-21.17 19.95-21.17 20 9.5 20 21.17-9 21.17-20 21.17zm0-32c-5.32 0-9.65 4.88-9.65 10.87s4.33 10.87 9.65 10.87 9.65-4.88 9.65-10.87-4.36-10.91-9.65-10.91zm32.36-105.56c-11 0-19.95-9.5-19.95-21.17s9-21.17 19.95-21.17 20 9.5 20 21.17-9 21.17-20 21.17zm0-32c-5.32 0-9.65 4.88-9.65 10.87s4.33 10.88 9.65 10.88 9.65-4.88 9.65-10.88-4.33-10.92-9.65-10.92zm-85.79 15.97c-11 0-19.95-9.5-19.95-21.17s9-21.17 19.95-21.17 20 9.5 20 21.17-8.99 21.17-20 21.17zm0-32c-5.32 0-9.65 4.88-9.65 10.87s4.33 10.87 9.65 10.87 9.65-4.88 9.65-10.87-4.32-10.91-9.65-10.91zm35.56-44.31c-11 0-20-9.5-20-21.17s9-21.17 20-21.17 20 9.5 20 21.17-9 21.17-20 21.17zm0-32c-5.32 0-9.65 4.88-9.65 10.87s4.33 10.87 9.65 10.87 9.65-4.88 9.65-10.87-4.32-10.91-9.65-10.91zM631.67 358.3c-11 0-20-9.5-20-21.17s9-21.17 20-21.17 20 9.5 20 21.17-8.99 21.17-20 21.17zm0-32c-5.32 0-9.65 4.88-9.65 10.88s4.33 10.82 9.65 10.82 9.65-4.88 9.65-10.87-4.32-10.88-9.65-10.88zm-49.83-24.09c-11 0-20-9.5-20-21.17s9-21.17 20-21.17 20 9.5 20 21.17-9 21.17-20 21.17zm0-32c-5.32 0-9.65 4.88-9.65 10.87s4.33 10.87 9.65 10.87 9.65-4.88 9.65-10.87-4.33-10.91-9.65-10.91zm-196.94 86.6c-11 0-20-9.5-20-21.17s9-21.17 20-21.17 20 9.5 20 21.17-8.99 21.17-20 21.17zm0-32c-5.32 0-9.65 4.88-9.65 10.88s4.33 10.87 9.65 10.87 9.65-4.88 9.65-10.87-4.32-10.92-9.65-10.92zm61.62-.04c-11 0-20-9.5-20-21.17s9-21.17 20-21.17 20 9.5 20 21.17-9 21.17-20 21.17zm0-32c-5.32 0-9.65 4.88-9.65 10.87s4.33 10.87 9.65 10.87 9.65-4.88 9.65-10.87-4.33-10.92-9.65-10.92zm-38.21 367.65c-11 0-20-9.5-20-21.17s9-21.17 20-21.17 19.95 9.5 19.95 21.17-8.95 21.17-19.95 21.17zm0-32c-5.32 0-9.65 4.88-9.65 10.87s4.33 10.87 9.65 10.87 9.65-4.88 9.65-10.87-4.33-10.91-9.65-10.91zm-86.16 4.28c-11 0-20-9.5-20-21.17s9-21.17 20-21.17 20 9.5 20 21.17-8.99 21.17-20 21.17zm0-32c-5.32 0-9.65 4.88-9.65 10.88s4.33 10.87 9.65 10.87 9.65-4.88 9.65-10.87-4.32-10.93-9.65-10.93zm-94.43 15.98c-11 0-20-9.5-20-21.17s9-21.17 20-21.17 20 9.5 20 21.17-9 21.17-20 21.17zm0-32c-5.32 0-9.65 4.88-9.65 10.87s4.33 10.88 9.65 10.88 9.65-4.88 9.65-10.88-4.37-10.92-9.65-10.92zm-21.95-87.52c-11 0-20-9.5-20-21.17s9-21.17 20-21.17 20 9.5 20 21.17-9 21.17-20 21.17zm0-32c-5.32 0-9.65 4.88-9.65 10.87s4.33 10.88 9.65 10.88 9.65-4.88 9.65-10.88-4.33-10.92-9.65-10.92zm74.09 15.97c-11 0-20-9.5-20-21.17s9-21.17 20-21.17 19.95 9.5 19.95 21.17-8.95 21.17-19.95 21.17zm0-32c-5.32 0-9.65 4.88-9.65 10.87s4.33 10.87 9.65 10.87 9.65-4.88 9.65-10.87-4.33-10.91-9.65-10.91zm-36.06-44.31c-11 0-19.95-9.5-19.95-21.17s9-21.17 19.95-21.17 20 9.5 20 21.17-9 21.17-20 21.17zm0-32c-5.32 0-9.65 4.88-9.65 10.88s4.33 10.87 9.65 10.87 9.65-4.88 9.65-10.87-4.33-10.92-9.65-10.92z" data-name="&amp;lt;Group&amp;gt;" class="color070707 svgShape"></path></g></svg></g></svg>