<svg xmlns="http://www.w3.org/2000/svg" enable-background="new 0 0 64 64" viewBox="0 0 64 64" id="processor-setting"><path fill="#00aeef" d="M34.09,44.11h-4.18c-0.54,0-0.97-0.43-0.97-0.97v-2.03c-0.42-0.14-0.83-0.31-1.22-0.51l-1.44,1.44
			c-0.18,0.18-0.43,0.29-0.69,0.29h0c-0.26,0-0.5-0.1-0.69-0.28l-2.96-2.96c-0.18-0.18-0.28-0.43-0.28-0.69s0.1-0.5,0.29-0.69
			l1.44-1.43c-0.2-0.39-0.37-0.8-0.51-1.22h-2.03c-0.54,0-0.97-0.43-0.97-0.97v-4.18c0-0.54,0.43-0.97,0.97-0.97h2.03
			c0.14-0.42,0.31-0.83,0.51-1.22l-1.44-1.44c-0.18-0.18-0.28-0.43-0.28-0.69c0-0.26,0.1-0.5,0.28-0.69l2.96-2.95
			c0.38-0.38,0.99-0.38,1.37,0l1.44,1.44c0.39-0.2,0.8-0.36,1.22-0.5v-2.03c0-0.54,0.43-0.97,0.97-0.97h4.18
			c0.54,0,0.97,0.43,0.97,0.97v2.03c0.42,0.14,0.83,0.31,1.22,0.51l1.44-1.44c0.38-0.38,0.99-0.38,1.37,0l2.95,2.95
			c0.38,0.38,0.38,0.99,0,1.37l-1.44,1.44c0.2,0.4,0.37,0.8,0.51,1.22h2.03c0.54,0,0.97,0.43,0.97,0.97v4.18
			c0,0.54-0.43,0.97-0.97,0.97h-2.03c-0.14,0.42-0.31,0.82-0.5,1.22l1.44,1.44c0.38,0.38,0.38,0.99,0,1.37l-2.95,2.96
			c-0.18,0.18-0.43,0.29-0.69,0.29h0c-0.26,0-0.5-0.1-0.69-0.28l-1.44-1.44c-0.39,0.2-0.8,0.37-1.22,0.51v2.03
			C35.06,43.68,34.62,44.11,34.09,44.11z M30.88,42.17h2.24v-1.79c0-0.45,0.3-0.83,0.73-0.94c0.74-0.18,1.45-0.48,2.09-0.87
			c0.38-0.23,0.87-0.17,1.19,0.14l1.27,1.27l1.58-1.58l-1.26-1.27c-0.31-0.31-0.38-0.8-0.15-1.18c0.39-0.65,0.68-1.36,0.87-2.1
			c0.11-0.43,0.5-0.73,0.94-0.73h1.79v-2.24h-1.79c-0.45,0-0.83-0.3-0.94-0.74c-0.18-0.74-0.47-1.44-0.87-2.1
			c-0.23-0.38-0.17-0.87,0.14-1.18l1.27-1.27l-1.58-1.58l-1.27,1.27c-0.31,0.31-0.8,0.37-1.18,0.14c-0.65-0.39-1.36-0.68-2.1-0.87
			c-0.43-0.11-0.73-0.5-0.73-0.94v-1.79h-2.24v1.79c0,0.45-0.3,0.83-0.73,0.94c-0.74,0.19-1.45,0.48-2.1,0.87
			c-0.38,0.23-0.87,0.17-1.18-0.15l-1.27-1.27l-1.58,1.58l1.27,1.27c0.32,0.32,0.38,0.81,0.14,1.19c-0.39,0.65-0.69,1.35-0.87,2.09
			c-0.11,0.43-0.5,0.74-0.94,0.74h-1.79v2.24h1.79c0.45,0,0.83,0.3,0.94,0.73c0.19,0.74,0.48,1.45,0.87,2.09
			c0.23,0.38,0.17,0.87-0.14,1.19l-1.27,1.26l1.58,1.58l1.26-1.27c0.32-0.32,0.81-0.37,1.19-0.14c0.64,0.39,1.35,0.68,2.09,0.87
			c0.43,0.11,0.73,0.5,0.73,0.94V42.17z M32,37.89c-3.25,0-5.89-2.64-5.89-5.89c0-3.24,2.64-5.88,5.89-5.88
			c3.24,0,5.88,2.64,5.88,5.88C37.89,35.24,35.25,37.89,32,37.89z M32,28.05c-2.18,0-3.95,1.77-3.95,3.94
			c0,2.18,1.77,3.95,3.95,3.95c2.17,0,3.94-1.77,3.94-3.95C35.95,29.82,34.18,28.05,32,28.05z"></path><path fill="#34495c" d="M44.67 47.57H19.33c-1.6 0-2.9-1.3-2.9-2.9V19.33c0-1.6 1.3-2.9 2.9-2.9h25.34c1.6 0 2.9 1.3 2.9 2.9v25.34C47.57 46.27 46.27 47.57 44.67 47.57zM19.33 18.37c-.53 0-.96.43-.96.96v25.34c0 .53.43.96.96.96h25.34c.53 0 .96-.43.96-.96V19.33c0-.53-.43-.96-.96-.96H19.33zM16.26 7.17c-1.98 0-3.59-1.61-3.59-3.59 0-1.98 1.61-3.59 3.59-3.59s3.59 1.61 3.59 3.59C19.85 5.56 18.24 7.17 16.26 7.17zM16.26 1.94c-.91 0-1.65.74-1.65 1.65s.74 1.65 1.65 1.65 1.65-.74 1.65-1.65S17.17 1.94 16.26 1.94z"></path><path fill="#34495c" d="M25.68 18.37c-.54 0-.97-.43-.97-.97v-5.02l-7.15-6.3c-.4-.35-.44-.97-.09-1.37.35-.4.97-.44 1.37-.09l7.48 6.59c.21.18.33.45.33.73v5.46C26.65 17.93 26.21 18.37 25.68 18.37zM47.74 7.17c-1.98 0-3.59-1.61-3.59-3.59 0-1.98 1.61-3.59 3.59-3.59 1.98 0 3.59 1.61 3.59 3.59C51.32 5.56 49.71 7.17 47.74 7.17zM47.74 1.94c-.91 0-1.65.74-1.65 1.65s.74 1.65 1.65 1.65c.91 0 1.65-.74 1.65-1.65S48.64 1.94 47.74 1.94z"></path><path fill="#34495c" d="M38.32 18.37c-.54 0-.97-.43-.97-.97v-5.46c0-.28.12-.54.33-.73l7.48-6.59c.4-.36 1.01-.32 1.37.09.35.4.32 1.01-.09 1.37l-7.15 6.3v5.02C39.29 17.93 38.86 18.37 38.32 18.37zM32 7.17c-1.98 0-3.59-1.61-3.59-3.59C28.41 1.61 30.02 0 32 0s3.59 1.61 3.59 3.59C35.59 5.56 33.98 7.17 32 7.17zM32 1.94c-.91 0-1.65.74-1.65 1.65S31.09 5.23 32 5.23c.91 0 1.65-.74 1.65-1.65S32.91 1.94 32 1.94z"></path><path fill="#34495c" d="M32,18.37c-0.54,0-0.97-0.43-0.97-0.97V6.2c0-0.54,0.43-0.97,0.97-0.97s0.97,0.43,0.97,0.97v11.2
							C32.97,17.94,32.54,18.37,32,18.37z"></path><g><path fill="#34495c" d="M47.74,64c-1.98,0-3.59-1.61-3.59-3.59c0-1.98,1.61-3.59,3.59-3.59c1.98,0,3.59,1.61,3.59,3.59
								C51.32,62.39,49.71,64,47.74,64z M47.74,58.77c-0.91,0-1.65,0.74-1.65,1.65c0,0.91,0.74,1.65,1.65,1.65
								c0.91,0,1.65-0.74,1.65-1.65C49.38,59.5,48.64,58.77,47.74,58.77z"></path><path fill="#34495c" d="M45.8 59.63c-.23 0-.46-.08-.64-.24l-7.48-6.59c-.21-.18-.33-.45-.33-.73V46.6c0-.54.43-.97.97-.97s.97.43.97.97v5.02l7.15 6.3c.4.35.44.97.09 1.37C46.34 59.52 46.07 59.63 45.8 59.63zM16.26 64c-1.98 0-3.59-1.61-3.59-3.59 0-1.98 1.61-3.59 3.59-3.59s3.59 1.61 3.59 3.59C19.85 62.39 18.24 64 16.26 64zM16.26 58.77c-.91 0-1.65.74-1.65 1.65 0 .91.74 1.65 1.65 1.65s1.65-.74 1.65-1.65C17.91 59.5 17.17 58.77 16.26 58.77z"></path><path fill="#34495c" d="M18.2,59.63c-0.27,0-0.54-0.11-0.73-0.33c-0.35-0.4-0.32-1.01,0.09-1.37l7.15-6.3V46.6
								c0-0.54,0.43-0.97,0.97-0.97s0.97,0.43,0.97,0.97v5.46c0,0.28-0.12,0.54-0.33,0.73l-7.48,6.59
								C18.66,59.55,18.43,59.63,18.2,59.63z"></path><g><path fill="#34495c" d="M32,64c-1.98,0-3.59-1.61-3.59-3.59c0-1.98,1.61-3.59,3.59-3.59s3.59,1.61,3.59,3.59
							C35.59,62.39,33.98,64,32,64z M32,58.77c-0.91,0-1.65,0.74-1.65,1.65c0,0.91,0.74,1.65,1.65,1.65c0.91,0,1.65-0.74,1.65-1.65
							C33.65,59.5,32.91,58.77,32,58.77z"></path><path fill="#34495c" d="M32,58.77c-0.54,0-0.97-0.43-0.97-0.97V46.6c0-0.54,0.43-0.97,0.97-0.97s0.97,0.43,0.97,0.97v11.2
							C32.97,58.33,32.54,58.77,32,58.77z"></path></g></g><g><path fill="#34495c" d="M60.41,19.85c-1.98,0-3.59-1.61-3.59-3.59c0-1.98,1.61-3.59,3.59-3.59S64,14.29,64,16.26
								C64,18.24,62.39,19.85,60.41,19.85z M60.41,14.62c-0.91,0-1.65,0.74-1.65,1.65c0,0.91,0.74,1.65,1.65,1.65
								c0.91,0,1.65-0.74,1.65-1.65C62.06,15.36,61.32,14.62,60.41,14.62z"></path><path fill="#34495c" d="M52.06 26.65H46.6c-.54 0-.97-.43-.97-.97 0-.54.43-.97.97-.97h5.02l6.3-7.15c.35-.4.97-.44 1.37-.09.4.35.44.97.09 1.37l-6.59 7.48C52.61 26.53 52.34 26.65 52.06 26.65zM60.41 51.32c-1.98 0-3.59-1.61-3.59-3.59 0-1.98 1.61-3.59 3.59-3.59S64 45.76 64 47.74C64 49.71 62.39 51.32 60.41 51.32zM60.41 46.09c-.91 0-1.65.74-1.65 1.65 0 .91.74 1.65 1.65 1.65.91 0 1.65-.74 1.65-1.65C62.06 46.83 61.32 46.09 60.41 46.09z"></path><path fill="#34495c" d="M58.66 46.77c-.27 0-.54-.11-.73-.33l-6.3-7.15H46.6c-.54 0-.97-.43-.97-.97s.43-.97.97-.97h5.46c.28 0 .54.12.73.33l6.59 7.48c.35.4.32 1.01-.09 1.37C59.11 46.69 58.88 46.77 58.66 46.77zM60.41 35.59c-1.98 0-3.59-1.61-3.59-3.59s1.61-3.59 3.59-3.59S64 30.02 64 32 62.39 35.59 60.41 35.59zM60.41 30.35c-.91 0-1.65.74-1.65 1.65 0 .91.74 1.65 1.65 1.65.91 0 1.65-.74 1.65-1.65C62.06 31.09 61.32 30.35 60.41 30.35z"></path><path fill="#34495c" d="M57.8,32.97H46.6c-0.54,0-0.97-0.43-0.97-0.97s0.43-0.97,0.97-0.97h11.2c0.54,0,0.97,0.43,0.97,0.97
							S58.33,32.97,57.8,32.97z"></path><g><path fill="#34495c" d="M3.59,51.32C1.61,51.32,0,49.71,0,47.74c0-1.98,1.61-3.59,3.59-3.59s3.59,1.61,3.59,3.59
								C7.17,49.71,5.56,51.32,3.59,51.32z M3.59,46.09c-0.91,0-1.65,0.74-1.65,1.65c0,0.91,0.74,1.65,1.65,1.65
								s1.65-0.74,1.65-1.65C5.23,46.83,4.49,46.09,3.59,46.09z"></path><path fill="#34495c" d="M5.34 46.77c-.23 0-.46-.08-.64-.24-.4-.35-.44-.97-.09-1.37l6.59-7.48c.18-.21.45-.33.73-.33h5.46c.54 0 .97.43.97.97s-.43.97-.97.97h-5.02l-6.3 7.15C5.88 46.66 5.61 46.77 5.34 46.77zM3.59 19.85C1.61 19.85 0 18.24 0 16.26c0-1.98 1.61-3.59 3.59-3.59s3.59 1.61 3.59 3.59C7.17 18.24 5.56 19.85 3.59 19.85zM3.59 14.62c-.91 0-1.65.74-1.65 1.65 0 .91.74 1.65 1.65 1.65s1.65-.74 1.65-1.65C5.23 15.36 4.49 14.62 3.59 14.62z"></path><path fill="#34495c" d="M17.4,26.65h-5.46c-0.28,0-0.54-0.12-0.73-0.33l-6.59-7.48c-0.35-0.4-0.32-1.01,0.09-1.37
								c0.4-0.36,1.01-0.32,1.37,0.09l6.3,7.15h5.02c0.54,0,0.97,0.43,0.97,0.97C18.37,26.21,17.93,26.65,17.4,26.65z"></path><g><path fill="#34495c" d="M3.59,35.59C1.61,35.59,0,33.98,0,32s1.61-3.59,3.59-3.59S7.17,30.02,7.17,32S5.56,35.59,3.59,35.59z
							 M3.59,30.35c-0.91,0-1.65,0.74-1.65,1.65c0,0.91,0.74,1.65,1.65,1.65S5.23,32.91,5.23,32C5.23,31.09,4.49,30.35,3.59,30.35z"></path><path fill="#34495c" d="M17.4,32.97H6.2c-0.54,0-0.97-0.43-0.97-0.97s0.43-0.97,0.97-0.97h11.2c0.54,0,0.97,0.43,0.97,0.97
							S17.94,32.97,17.4,32.97z"></path></g></g></g></svg>